ISO-10303-21;
HEADER;
/* Generated by software containing ST-Developer
 * from STEP Tools, Inc. (www.steptools.com) 
 */

FILE_DESCRIPTION(
/* description */ (''),
/* implementation_level */ '2;1');

FILE_NAME(
/* name */ 'MX Plug Mushroom v4.step',
/* time_stamp */ '2026-10-03T21:12:13+08:00',
/* author */ (''),
/* organization */ (''),
/* preprocessor_version */ 'ST-DEVELOPER v20.2',
/* originating_system */ 'Autodesk Translation Framework v15.15.0.0',
/* authorisation */ '');

FILE_SCHEMA (('AUTOMOTIVE_DESIGN { 1 0 10303 214 3 1 1 }'));
ENDSEC;

DATA;
#10=MECHANICAL_DESIGN_GEOMETRIC_PRESENTATION_REPRESENTATION('',(#13),#1230);
#11=SHAPE_REPRESENTATION_RELATIONSHIP('SRR','None',#1237,#12);
#12=ADVANCED_BREP_SHAPE_REPRESENTATION('',(#14),#1229);
#13=STYLED_ITEM('',(#1246),#14);
#14=MANIFOLD_SOLID_BREP('Body1',#638);
#15=TOROIDAL_SURFACE('',#701,2.55,0.2);
#16=TOROIDAL_SURFACE('',#706,3.,0.25);
#17=FACE_BOUND('',#230,.T.);
#18=FACE_BOUND('',#235,.T.);
#19=PLANE('',#689);
#20=PLANE('',#690);
#21=PLANE('',#693);
#22=PLANE('',#694);
#23=PLANE('',#695);
#24=PLANE('',#698);
#25=PLANE('',#699);
#26=PLANE('',#709);
#27=PLANE('',#710);
#28=PLANE('',#714);
#29=PLANE('',#715);
#30=PLANE('',#716);
#31=PLANE('',#718);
#32=PLANE('',#719);
#33=PLANE('',#720);
#34=ELLIPSE('',#655,0.282842712474619,0.2);
#35=ELLIPSE('',#657,0.282842712474619,0.2);
#36=ELLIPSE('',#660,0.282842712474619,0.2);
#37=ELLIPSE('',#662,0.282842712474619,0.2);
#38=ELLIPSE('',#665,0.282842712474619,0.2);
#39=ELLIPSE('',#671,0.282842712474619,0.2);
#40=ELLIPSE('',#674,0.282842712474619,0.2);
#41=ELLIPSE('',#684,0.282842712474619,0.2);
#42=LINE('',#1021,#95);
#43=LINE('',#1025,#96);
#44=LINE('',#1029,#97);
#45=LINE('',#1032,#98);
#46=LINE('',#1036,#99);
#47=LINE('',#1040,#100);
#48=LINE('',#1044,#101);
#49=LINE('',#1047,#102);
#50=LINE('',#1051,#103);
#51=LINE('',#1055,#104);
#52=LINE('',#1072,#105);
#53=LINE('',#1073,#106);
#54=LINE('',#1076,#107);
#55=LINE('',#1078,#108);
#56=LINE('',#1083,#109);
#57=LINE('',#1087,#110);
#58=LINE('',#1104,#111);
#59=LINE('',#1105,#112);
#60=LINE('',#1121,#113);
#61=LINE('',#1122,#114);
#62=LINE('',#1125,#115);
#63=LINE('',#1127,#116);
#64=LINE('',#1144,#117);
#65=LINE('',#1145,#118);
#66=LINE('',#1148,#119);
#67=LINE('',#1150,#120);
#68=LINE('',#1151,#121);
#69=LINE('',#1154,#122);
#70=LINE('',#1155,#123);
#71=LINE('',#1158,#124);
#72=LINE('',#1162,#125);
#73=LINE('',#1163,#126);
#74=LINE('',#1166,#127);
#75=LINE('',#1167,#128);
#76=LINE('',#1170,#129);
#77=LINE('',#1171,#130);
#78=LINE('',#1174,#131);
#79=LINE('',#1178,#132);
#80=LINE('',#1179,#133);
#81=LINE('',#1189,#134);
#82=LINE('',#1200,#135);
#83=LINE('',#1202,#136);
#84=LINE('',#1204,#137);
#85=LINE('',#1208,#138);
#86=LINE('',#1210,#139);
#87=LINE('',#1211,#140);
#88=LINE('',#1213,#141);
#89=LINE('',#1214,#142);
#90=LINE('',#1217,#143);
#91=LINE('',#1219,#144);
#92=LINE('',#1221,#145);
#93=LINE('',#1223,#146);
#94=LINE('',#1225,#147);
#95=VECTOR('',#727,10.);
#96=VECTOR('',#730,10.);
#97=VECTOR('',#735,10.);
#98=VECTOR('',#738,10.);
#99=VECTOR('',#741,10.);
#100=VECTOR('',#744,10.);
#101=VECTOR('',#749,10.);
#102=VECTOR('',#752,10.);
#103=VECTOR('',#755,10.);
#104=VECTOR('',#758,10.);
#105=VECTOR('',#769,10.);
#106=VECTOR('',#770,10.);
#107=VECTOR('',#773,10.);
#108=VECTOR('',#774,10.);
#109=VECTOR('',#779,10.);
#110=VECTOR('',#782,10.);
#111=VECTOR('',#793,10.);
#112=VECTOR('',#794,10.);
#113=VECTOR('',#803,10.);
#114=VECTOR('',#804,10.);
#115=VECTOR('',#807,10.);
#116=VECTOR('',#808,10.);
#117=VECTOR('',#819,10.);
#118=VECTOR('',#820,10.);
#119=VECTOR('',#823,10.);
#120=VECTOR('',#824,10.);
#121=VECTOR('',#825,10.);
#122=VECTOR('',#828,10.);
#123=VECTOR('',#829,10.);
#124=VECTOR('',#832,10.);
#125=VECTOR('',#837,10.);
#126=VECTOR('',#838,10.);
#127=VECTOR('',#841,10.);
#128=VECTOR('',#842,10.);
#129=VECTOR('',#845,10.);
#130=VECTOR('',#846,10.);
#131=VECTOR('',#849,10.);
#132=VECTOR('',#854,10.);
#133=VECTOR('',#855,10.);
#134=VECTOR('',#868,2.75);
#135=VECTOR('',#883,10.);
#136=VECTOR('',#884,10.);
#137=VECTOR('',#885,10.);
#138=VECTOR('',#888,10.);
#139=VECTOR('',#889,10.);
#140=VECTOR('',#890,10.);
#141=VECTOR('',#893,10.);
#142=VECTOR('',#894,10.);
#143=VECTOR('',#899,10.);
#144=VECTOR('',#902,10.);
#145=VECTOR('',#905,10.);
#146=VECTOR('',#908,10.);
#147=VECTOR('',#911,10.);
#148=CYLINDRICAL_SURFACE('',#653,0.2);
#149=CYLINDRICAL_SURFACE('',#656,0.2);
#150=CYLINDRICAL_SURFACE('',#658,0.2);
#151=CYLINDRICAL_SURFACE('',#661,0.2);
#152=CYLINDRICAL_SURFACE('',#663,0.2);
#153=CYLINDRICAL_SURFACE('',#669,0.2);
#154=CYLINDRICAL_SURFACE('',#670,0.2);
#155=CYLINDRICAL_SURFACE('',#672,0.2);
#156=CYLINDRICAL_SURFACE('',#678,0.2);
#157=CYLINDRICAL_SURFACE('',#682,0.2);
#158=CYLINDRICAL_SURFACE('',#683,0.2);
#159=CYLINDRICAL_SURFACE('',#688,0.2);
#160=CYLINDRICAL_SURFACE('',#691,0.3);
#161=CYLINDRICAL_SURFACE('',#696,0.3);
#162=CYLINDRICAL_SURFACE('',#704,2.75);
#163=CYLINDRICAL_SURFACE('',#713,0.3);
#164=CYLINDRICAL_SURFACE('',#717,0.3);
#165=FACE_OUTER_BOUND('',#204,.T.);
#166=FACE_OUTER_BOUND('',#205,.T.);
#167=FACE_OUTER_BOUND('',#206,.T.);
#168=FACE_OUTER_BOUND('',#207,.T.);
#169=FACE_OUTER_BOUND('',#208,.T.);
#170=FACE_OUTER_BOUND('',#209,.T.);
#171=FACE_OUTER_BOUND('',#210,.T.);
#172=FACE_OUTER_BOUND('',#211,.T.);
#173=FACE_OUTER_BOUND('',#212,.T.);
#174=FACE_OUTER_BOUND('',#213,.T.);
#175=FACE_OUTER_BOUND('',#214,.T.);
#176=FACE_OUTER_BOUND('',#215,.T.);
#177=FACE_OUTER_BOUND('',#216,.T.);
#178=FACE_OUTER_BOUND('',#217,.T.);
#179=FACE_OUTER_BOUND('',#218,.T.);
#180=FACE_OUTER_BOUND('',#219,.T.);
#181=FACE_OUTER_BOUND('',#220,.T.);
#182=FACE_OUTER_BOUND('',#221,.T.);
#183=FACE_OUTER_BOUND('',#222,.T.);
#184=FACE_OUTER_BOUND('',#223,.T.);
#185=FACE_OUTER_BOUND('',#224,.T.);
#186=FACE_OUTER_BOUND('',#225,.T.);
#187=FACE_OUTER_BOUND('',#226,.T.);
#188=FACE_OUTER_BOUND('',#227,.T.);
#189=FACE_OUTER_BOUND('',#228,.T.);
#190=FACE_OUTER_BOUND('',#229,.T.);
#191=FACE_OUTER_BOUND('',#231,.T.);
#192=FACE_OUTER_BOUND('',#232,.T.);
#193=FACE_OUTER_BOUND('',#233,.T.);
#194=FACE_OUTER_BOUND('',#234,.T.);
#195=FACE_OUTER_BOUND('',#236,.T.);
#196=FACE_OUTER_BOUND('',#237,.T.);
#197=FACE_OUTER_BOUND('',#238,.T.);
#198=FACE_OUTER_BOUND('',#239,.T.);
#199=FACE_OUTER_BOUND('',#240,.T.);
#200=FACE_OUTER_BOUND('',#241,.T.);
#201=FACE_OUTER_BOUND('',#242,.T.);
#202=FACE_OUTER_BOUND('',#243,.T.);
#203=FACE_OUTER_BOUND('',#244,.T.);
#204=EDGE_LOOP('',(#416,#417,#418));
#205=EDGE_LOOP('',(#419,#420,#421,#422));
#206=EDGE_LOOP('',(#423,#424,#425,#426));
#207=EDGE_LOOP('',(#427,#428,#429,#430));
#208=EDGE_LOOP('',(#431,#432,#433,#434));
#209=EDGE_LOOP('',(#435,#436,#437,#438));
#210=EDGE_LOOP('',(#439,#440,#441,#442));
#211=EDGE_LOOP('',(#443,#444,#445,#446));
#212=EDGE_LOOP('',(#447,#448,#449,#450));
#213=EDGE_LOOP('',(#451,#452,#453,#454));
#214=EDGE_LOOP('',(#455,#456,#457,#458));
#215=EDGE_LOOP('',(#459,#460,#461,#462));
#216=EDGE_LOOP('',(#463,#464,#465,#466));
#217=EDGE_LOOP('',(#467,#468,#469,#470));
#218=EDGE_LOOP('',(#471,#472,#473,#474));
#219=EDGE_LOOP('',(#475,#476,#477,#478));
#220=EDGE_LOOP('',(#479,#480,#481,#482));
#221=EDGE_LOOP('',(#483,#484,#485,#486));
#222=EDGE_LOOP('',(#487,#488,#489,#490));
#223=EDGE_LOOP('',(#491,#492,#493,#494));
#224=EDGE_LOOP('',(#495,#496,#497,#498));
#225=EDGE_LOOP('',(#499,#500,#501,#502));
#226=EDGE_LOOP('',(#503,#504,#505,#506));
#227=EDGE_LOOP('',(#507,#508,#509,#510));
#228=EDGE_LOOP('',(#511,#512,#513,#514));
#229=EDGE_LOOP('',(#515));
#230=EDGE_LOOP('',(#516,#517,#518,#519,#520,#521,#522,#523,#524,#525,#526,
#527,#528,#529,#530,#531));
#231=EDGE_LOOP('',(#532,#533,#534,#535));
#232=EDGE_LOOP('',(#536,#537,#538,#539));
#233=EDGE_LOOP('',(#540,#541,#542,#543));
#234=EDGE_LOOP('',(#544));
#235=EDGE_LOOP('',(#545));
#236=EDGE_LOOP('',(#546,#547,#548,#549,#550,#551,#552,#553,#554,#555,#556,
#557,#558,#559,#560,#561));
#237=EDGE_LOOP('',(#562,#563,#564,#565));
#238=EDGE_LOOP('',(#566,#567,#568,#569));
#239=EDGE_LOOP('',(#570,#571,#572,#573));
#240=EDGE_LOOP('',(#574,#575,#576,#577));
#241=EDGE_LOOP('',(#578,#579,#580,#581));
#242=EDGE_LOOP('',(#582,#583,#584,#585));
#243=EDGE_LOOP('',(#586,#587,#588,#589));
#244=EDGE_LOOP('',(#590,#591,#592,#593));
#245=CIRCLE('',#652,4.);
#246=CIRCLE('',#654,0.2);
#247=CIRCLE('',#659,0.2);
#248=CIRCLE('',#664,0.2);
#249=CIRCLE('',#666,0.2);
#250=CIRCLE('',#667,0.1);
#251=CIRCLE('',#668,0.3);
#252=CIRCLE('',#673,0.2);
#253=CIRCLE('',#675,0.2);
#254=CIRCLE('',#676,0.0999999999999997);
#255=CIRCLE('',#677,0.3);
#256=CIRCLE('',#679,0.2);
#257=CIRCLE('',#680,0.0999999999999998);
#258=CIRCLE('',#681,0.3);
#259=CIRCLE('',#685,0.2);
#260=CIRCLE('',#686,0.0999999999999998);
#261=CIRCLE('',#687,0.3);
#262=CIRCLE('',#692,0.3);
#263=CIRCLE('',#697,0.3);
#264=CIRCLE('',#700,2.55);
#265=CIRCLE('',#702,0.2);
#266=CIRCLE('',#703,2.75);
#267=CIRCLE('',#705,2.75);
#268=CIRCLE('',#707,3.);
#269=CIRCLE('',#708,0.25);
#270=CIRCLE('',#711,0.3);
#271=CIRCLE('',#712,0.3);
#272=(
BOUNDED_CURVE()
B_SPLINE_CURVE(5,(#1007,#1008,#1009,#1010,#1011,#1012,#1013,#1014,#1015,
#1016),.UNSPECIFIED.,.F.,.F.)
B_SPLINE_CURVE_WITH_KNOTS((6,1,1,1,1,6),(0.,0.2,0.4,0.6,0.8,1.),
 .UNSPECIFIED.)
CURVE()
GEOMETRIC_REPRESENTATION_ITEM()
RATIONAL_B_SPLINE_CURVE((1.,1.,1.,1.,1.,1.,1.,1.,1.,1.))
REPRESENTATION_ITEM('')
);
#273=VERTEX_POINT('',#1005);
#274=VERTEX_POINT('',#1006);
#275=VERTEX_POINT('',#1019);
#276=VERTEX_POINT('',#1020);
#277=VERTEX_POINT('',#1022);
#278=VERTEX_POINT('',#1024);
#279=VERTEX_POINT('',#1028);
#280=VERTEX_POINT('',#1030);
#281=VERTEX_POINT('',#1034);
#282=VERTEX_POINT('',#1035);
#283=VERTEX_POINT('',#1037);
#284=VERTEX_POINT('',#1039);
#285=VERTEX_POINT('',#1043);
#286=VERTEX_POINT('',#1045);
#287=VERTEX_POINT('',#1049);
#288=VERTEX_POINT('',#1050);
#289=VERTEX_POINT('',#1052);
#290=VERTEX_POINT('',#1054);
#291=VERTEX_POINT('',#1066);
#292=VERTEX_POINT('',#1067);
#293=VERTEX_POINT('',#1075);
#294=VERTEX_POINT('',#1077);
#295=VERTEX_POINT('',#1081);
#296=VERTEX_POINT('',#1082);
#297=VERTEX_POINT('',#1084);
#298=VERTEX_POINT('',#1086);
#299=VERTEX_POINT('',#1098);
#300=VERTEX_POINT('',#1099);
#301=VERTEX_POINT('',#1115);
#302=VERTEX_POINT('',#1116);
#303=VERTEX_POINT('',#1124);
#304=VERTEX_POINT('',#1126);
#305=VERTEX_POINT('',#1138);
#306=VERTEX_POINT('',#1139);
#307=VERTEX_POINT('',#1147);
#308=VERTEX_POINT('',#1149);
#309=VERTEX_POINT('',#1153);
#310=VERTEX_POINT('',#1157);
#311=VERTEX_POINT('',#1161);
#312=VERTEX_POINT('',#1165);
#313=VERTEX_POINT('',#1169);
#314=VERTEX_POINT('',#1173);
#315=VERTEX_POINT('',#1177);
#316=VERTEX_POINT('',#1181);
#317=VERTEX_POINT('',#1184);
#318=VERTEX_POINT('',#1188);
#319=VERTEX_POINT('',#1192);
#320=VERTEX_POINT('',#1197);
#321=VERTEX_POINT('',#1198);
#322=VERTEX_POINT('',#1201);
#323=VERTEX_POINT('',#1203);
#324=VERTEX_POINT('',#1205);
#325=VERTEX_POINT('',#1207);
#326=VERTEX_POINT('',#1209);
#327=EDGE_CURVE('',#273,#274,#272,.T.);
#328=EDGE_CURVE('',#273,#273,#245,.T.);
#329=EDGE_CURVE('',#275,#276,#42,.T.);
#330=EDGE_CURVE('',#276,#277,#246,.T.);
#331=EDGE_CURVE('',#277,#278,#43,.T.);
#332=EDGE_CURVE('',#278,#275,#34,.T.);
#333=EDGE_CURVE('',#278,#279,#44,.T.);
#334=EDGE_CURVE('',#279,#280,#35,.T.);
#335=EDGE_CURVE('',#280,#275,#45,.T.);
#336=EDGE_CURVE('',#281,#282,#46,.T.);
#337=EDGE_CURVE('',#282,#283,#247,.T.);
#338=EDGE_CURVE('',#283,#284,#47,.T.);
#339=EDGE_CURVE('',#284,#281,#36,.T.);
#340=EDGE_CURVE('',#284,#285,#48,.T.);
#341=EDGE_CURVE('',#285,#286,#37,.T.);
#342=EDGE_CURVE('',#286,#281,#49,.T.);
#343=EDGE_CURVE('',#287,#288,#50,.T.);
#344=EDGE_CURVE('',#288,#289,#248,.T.);
#345=EDGE_CURVE('',#289,#290,#51,.T.);
#346=EDGE_CURVE('',#290,#287,#38,.T.);
#347=EDGE_CURVE('',#291,#292,#249,.T.);
#348=EDGE_CURVE('',#292,#289,#250,.T.);
#349=EDGE_CURVE('',#288,#291,#251,.T.);
#350=EDGE_CURVE('',#285,#292,#52,.T.);
#351=EDGE_CURVE('',#291,#286,#53,.T.);
#352=EDGE_CURVE('',#293,#287,#54,.T.);
#353=EDGE_CURVE('',#290,#294,#55,.T.);
#354=EDGE_CURVE('',#294,#293,#39,.T.);
#355=EDGE_CURVE('',#295,#296,#56,.T.);
#356=EDGE_CURVE('',#296,#297,#252,.T.);
#357=EDGE_CURVE('',#297,#298,#57,.T.);
#358=EDGE_CURVE('',#298,#295,#40,.T.);
#359=EDGE_CURVE('',#299,#300,#253,.T.);
#360=EDGE_CURVE('',#300,#297,#254,.T.);
#361=EDGE_CURVE('',#296,#299,#255,.T.);
#362=EDGE_CURVE('',#294,#300,#58,.T.);
#363=EDGE_CURVE('',#299,#293,#59,.T.);
#364=EDGE_CURVE('',#301,#302,#256,.T.);
#365=EDGE_CURVE('',#302,#283,#257,.T.);
#366=EDGE_CURVE('',#282,#301,#258,.T.);
#367=EDGE_CURVE('',#279,#302,#60,.T.);
#368=EDGE_CURVE('',#301,#280,#61,.T.);
#369=EDGE_CURVE('',#303,#295,#62,.T.);
#370=EDGE_CURVE('',#298,#304,#63,.T.);
#371=EDGE_CURVE('',#304,#303,#41,.T.);
#372=EDGE_CURVE('',#305,#306,#259,.T.);
#373=EDGE_CURVE('',#306,#277,#260,.T.);
#374=EDGE_CURVE('',#276,#305,#261,.T.);
#375=EDGE_CURVE('',#304,#306,#64,.T.);
#376=EDGE_CURVE('',#305,#303,#65,.T.);
#377=EDGE_CURVE('',#307,#286,#66,.T.);
#378=EDGE_CURVE('',#307,#308,#67,.T.);
#379=EDGE_CURVE('',#308,#281,#68,.T.);
#380=EDGE_CURVE('',#309,#291,#69,.T.);
#381=EDGE_CURVE('',#309,#307,#70,.T.);
#382=EDGE_CURVE('',#310,#288,#71,.T.);
#383=EDGE_CURVE('',#310,#309,#262,.T.);
#384=EDGE_CURVE('',#311,#287,#72,.T.);
#385=EDGE_CURVE('',#311,#310,#73,.T.);
#386=EDGE_CURVE('',#312,#293,#74,.T.);
#387=EDGE_CURVE('',#312,#311,#75,.T.);
#388=EDGE_CURVE('',#313,#299,#76,.T.);
#389=EDGE_CURVE('',#313,#312,#77,.T.);
#390=EDGE_CURVE('',#314,#296,#78,.T.);
#391=EDGE_CURVE('',#314,#313,#263,.T.);
#392=EDGE_CURVE('',#315,#295,#79,.T.);
#393=EDGE_CURVE('',#315,#314,#80,.T.);
#394=EDGE_CURVE('',#316,#316,#264,.T.);
#395=EDGE_CURVE('',#316,#317,#265,.T.);
#396=EDGE_CURVE('',#317,#317,#266,.T.);
#397=EDGE_CURVE('',#317,#318,#81,.T.);
#398=EDGE_CURVE('',#318,#318,#267,.T.);
#399=EDGE_CURVE('',#319,#319,#268,.T.);
#400=EDGE_CURVE('',#319,#318,#269,.T.);
#401=EDGE_CURVE('',#320,#321,#270,.T.);
#402=EDGE_CURVE('',#308,#320,#82,.T.);
#403=EDGE_CURVE('',#322,#315,#83,.T.);
#404=EDGE_CURVE('',#323,#322,#84,.T.);
#405=EDGE_CURVE('',#324,#323,#271,.T.);
#406=EDGE_CURVE('',#325,#324,#85,.T.);
#407=EDGE_CURVE('',#326,#325,#86,.T.);
#408=EDGE_CURVE('',#321,#326,#87,.T.);
#409=EDGE_CURVE('',#320,#282,#88,.T.);
#410=EDGE_CURVE('',#321,#301,#89,.T.);
#411=EDGE_CURVE('',#322,#303,#90,.T.);
#412=EDGE_CURVE('',#323,#305,#91,.T.);
#413=EDGE_CURVE('',#324,#276,#92,.T.);
#414=EDGE_CURVE('',#325,#275,#93,.T.);
#415=EDGE_CURVE('',#326,#280,#94,.T.);
#416=ORIENTED_EDGE('',*,*,#327,.F.);
#417=ORIENTED_EDGE('',*,*,#328,.F.);
#418=ORIENTED_EDGE('',*,*,#327,.T.);
#419=ORIENTED_EDGE('',*,*,#329,.T.);
#420=ORIENTED_EDGE('',*,*,#330,.T.);
#421=ORIENTED_EDGE('',*,*,#331,.T.);
#422=ORIENTED_EDGE('',*,*,#332,.T.);
#423=ORIENTED_EDGE('',*,*,#333,.T.);
#424=ORIENTED_EDGE('',*,*,#334,.T.);
#425=ORIENTED_EDGE('',*,*,#335,.T.);
#426=ORIENTED_EDGE('',*,*,#332,.F.);
#427=ORIENTED_EDGE('',*,*,#336,.T.);
#428=ORIENTED_EDGE('',*,*,#337,.T.);
#429=ORIENTED_EDGE('',*,*,#338,.T.);
#430=ORIENTED_EDGE('',*,*,#339,.T.);
#431=ORIENTED_EDGE('',*,*,#340,.T.);
#432=ORIENTED_EDGE('',*,*,#341,.T.);
#433=ORIENTED_EDGE('',*,*,#342,.T.);
#434=ORIENTED_EDGE('',*,*,#339,.F.);
#435=ORIENTED_EDGE('',*,*,#343,.T.);
#436=ORIENTED_EDGE('',*,*,#344,.T.);
#437=ORIENTED_EDGE('',*,*,#345,.T.);
#438=ORIENTED_EDGE('',*,*,#346,.T.);
#439=ORIENTED_EDGE('',*,*,#347,.T.);
#440=ORIENTED_EDGE('',*,*,#348,.T.);
#441=ORIENTED_EDGE('',*,*,#344,.F.);
#442=ORIENTED_EDGE('',*,*,#349,.T.);
#443=ORIENTED_EDGE('',*,*,#350,.T.);
#444=ORIENTED_EDGE('',*,*,#347,.F.);
#445=ORIENTED_EDGE('',*,*,#351,.T.);
#446=ORIENTED_EDGE('',*,*,#341,.F.);
#447=ORIENTED_EDGE('',*,*,#352,.T.);
#448=ORIENTED_EDGE('',*,*,#346,.F.);
#449=ORIENTED_EDGE('',*,*,#353,.T.);
#450=ORIENTED_EDGE('',*,*,#354,.T.);
#451=ORIENTED_EDGE('',*,*,#355,.T.);
#452=ORIENTED_EDGE('',*,*,#356,.T.);
#453=ORIENTED_EDGE('',*,*,#357,.T.);
#454=ORIENTED_EDGE('',*,*,#358,.T.);
#455=ORIENTED_EDGE('',*,*,#359,.T.);
#456=ORIENTED_EDGE('',*,*,#360,.T.);
#457=ORIENTED_EDGE('',*,*,#356,.F.);
#458=ORIENTED_EDGE('',*,*,#361,.T.);
#459=ORIENTED_EDGE('',*,*,#362,.T.);
#460=ORIENTED_EDGE('',*,*,#359,.F.);
#461=ORIENTED_EDGE('',*,*,#363,.T.);
#462=ORIENTED_EDGE('',*,*,#354,.F.);
#463=ORIENTED_EDGE('',*,*,#364,.T.);
#464=ORIENTED_EDGE('',*,*,#365,.T.);
#465=ORIENTED_EDGE('',*,*,#337,.F.);
#466=ORIENTED_EDGE('',*,*,#366,.T.);
#467=ORIENTED_EDGE('',*,*,#367,.T.);
#468=ORIENTED_EDGE('',*,*,#364,.F.);
#469=ORIENTED_EDGE('',*,*,#368,.T.);
#470=ORIENTED_EDGE('',*,*,#334,.F.);
#471=ORIENTED_EDGE('',*,*,#369,.T.);
#472=ORIENTED_EDGE('',*,*,#358,.F.);
#473=ORIENTED_EDGE('',*,*,#370,.T.);
#474=ORIENTED_EDGE('',*,*,#371,.T.);
#475=ORIENTED_EDGE('',*,*,#372,.T.);
#476=ORIENTED_EDGE('',*,*,#373,.T.);
#477=ORIENTED_EDGE('',*,*,#330,.F.);
#478=ORIENTED_EDGE('',*,*,#374,.T.);
#479=ORIENTED_EDGE('',*,*,#375,.T.);
#480=ORIENTED_EDGE('',*,*,#372,.F.);
#481=ORIENTED_EDGE('',*,*,#376,.T.);
#482=ORIENTED_EDGE('',*,*,#371,.F.);
#483=ORIENTED_EDGE('',*,*,#342,.F.);
#484=ORIENTED_EDGE('',*,*,#377,.F.);
#485=ORIENTED_EDGE('',*,*,#378,.T.);
#486=ORIENTED_EDGE('',*,*,#379,.T.);
#487=ORIENTED_EDGE('',*,*,#351,.F.);
#488=ORIENTED_EDGE('',*,*,#380,.F.);
#489=ORIENTED_EDGE('',*,*,#381,.T.);
#490=ORIENTED_EDGE('',*,*,#377,.T.);
#491=ORIENTED_EDGE('',*,*,#349,.F.);
#492=ORIENTED_EDGE('',*,*,#382,.F.);
#493=ORIENTED_EDGE('',*,*,#383,.T.);
#494=ORIENTED_EDGE('',*,*,#380,.T.);
#495=ORIENTED_EDGE('',*,*,#343,.F.);
#496=ORIENTED_EDGE('',*,*,#384,.F.);
#497=ORIENTED_EDGE('',*,*,#385,.T.);
#498=ORIENTED_EDGE('',*,*,#382,.T.);
#499=ORIENTED_EDGE('',*,*,#352,.F.);
#500=ORIENTED_EDGE('',*,*,#386,.F.);
#501=ORIENTED_EDGE('',*,*,#387,.T.);
#502=ORIENTED_EDGE('',*,*,#384,.T.);
#503=ORIENTED_EDGE('',*,*,#363,.F.);
#504=ORIENTED_EDGE('',*,*,#388,.F.);
#505=ORIENTED_EDGE('',*,*,#389,.T.);
#506=ORIENTED_EDGE('',*,*,#386,.T.);
#507=ORIENTED_EDGE('',*,*,#361,.F.);
#508=ORIENTED_EDGE('',*,*,#390,.F.);
#509=ORIENTED_EDGE('',*,*,#391,.T.);
#510=ORIENTED_EDGE('',*,*,#388,.T.);
#511=ORIENTED_EDGE('',*,*,#355,.F.);
#512=ORIENTED_EDGE('',*,*,#392,.F.);
#513=ORIENTED_EDGE('',*,*,#393,.T.);
#514=ORIENTED_EDGE('',*,*,#390,.T.);
#515=ORIENTED_EDGE('',*,*,#394,.F.);
#516=ORIENTED_EDGE('',*,*,#357,.F.);
#517=ORIENTED_EDGE('',*,*,#360,.F.);
#518=ORIENTED_EDGE('',*,*,#362,.F.);
#519=ORIENTED_EDGE('',*,*,#353,.F.);
#520=ORIENTED_EDGE('',*,*,#345,.F.);
#521=ORIENTED_EDGE('',*,*,#348,.F.);
#522=ORIENTED_EDGE('',*,*,#350,.F.);
#523=ORIENTED_EDGE('',*,*,#340,.F.);
#524=ORIENTED_EDGE('',*,*,#338,.F.);
#525=ORIENTED_EDGE('',*,*,#365,.F.);
#526=ORIENTED_EDGE('',*,*,#367,.F.);
#527=ORIENTED_EDGE('',*,*,#333,.F.);
#528=ORIENTED_EDGE('',*,*,#331,.F.);
#529=ORIENTED_EDGE('',*,*,#373,.F.);
#530=ORIENTED_EDGE('',*,*,#375,.F.);
#531=ORIENTED_EDGE('',*,*,#370,.F.);
#532=ORIENTED_EDGE('',*,*,#394,.T.);
#533=ORIENTED_EDGE('',*,*,#395,.T.);
#534=ORIENTED_EDGE('',*,*,#396,.T.);
#535=ORIENTED_EDGE('',*,*,#395,.F.);
#536=ORIENTED_EDGE('',*,*,#396,.F.);
#537=ORIENTED_EDGE('',*,*,#397,.T.);
#538=ORIENTED_EDGE('',*,*,#398,.F.);
#539=ORIENTED_EDGE('',*,*,#397,.F.);
#540=ORIENTED_EDGE('',*,*,#399,.T.);
#541=ORIENTED_EDGE('',*,*,#400,.T.);
#542=ORIENTED_EDGE('',*,*,#398,.T.);
#543=ORIENTED_EDGE('',*,*,#400,.F.);
#544=ORIENTED_EDGE('',*,*,#328,.T.);
#545=ORIENTED_EDGE('',*,*,#399,.F.);
#546=ORIENTED_EDGE('',*,*,#401,.F.);
#547=ORIENTED_EDGE('',*,*,#402,.F.);
#548=ORIENTED_EDGE('',*,*,#378,.F.);
#549=ORIENTED_EDGE('',*,*,#381,.F.);
#550=ORIENTED_EDGE('',*,*,#383,.F.);
#551=ORIENTED_EDGE('',*,*,#385,.F.);
#552=ORIENTED_EDGE('',*,*,#387,.F.);
#553=ORIENTED_EDGE('',*,*,#389,.F.);
#554=ORIENTED_EDGE('',*,*,#391,.F.);
#555=ORIENTED_EDGE('',*,*,#393,.F.);
#556=ORIENTED_EDGE('',*,*,#403,.F.);
#557=ORIENTED_EDGE('',*,*,#404,.F.);
#558=ORIENTED_EDGE('',*,*,#405,.F.);
#559=ORIENTED_EDGE('',*,*,#406,.F.);
#560=ORIENTED_EDGE('',*,*,#407,.F.);
#561=ORIENTED_EDGE('',*,*,#408,.F.);
#562=ORIENTED_EDGE('',*,*,#366,.F.);
#563=ORIENTED_EDGE('',*,*,#409,.F.);
#564=ORIENTED_EDGE('',*,*,#401,.T.);
#565=ORIENTED_EDGE('',*,*,#410,.T.);
#566=ORIENTED_EDGE('',*,*,#336,.F.);
#567=ORIENTED_EDGE('',*,*,#379,.F.);
#568=ORIENTED_EDGE('',*,*,#402,.T.);
#569=ORIENTED_EDGE('',*,*,#409,.T.);
#570=ORIENTED_EDGE('',*,*,#369,.F.);
#571=ORIENTED_EDGE('',*,*,#411,.F.);
#572=ORIENTED_EDGE('',*,*,#403,.T.);
#573=ORIENTED_EDGE('',*,*,#392,.T.);
#574=ORIENTED_EDGE('',*,*,#376,.F.);
#575=ORIENTED_EDGE('',*,*,#412,.F.);
#576=ORIENTED_EDGE('',*,*,#404,.T.);
#577=ORIENTED_EDGE('',*,*,#411,.T.);
#578=ORIENTED_EDGE('',*,*,#374,.F.);
#579=ORIENTED_EDGE('',*,*,#413,.F.);
#580=ORIENTED_EDGE('',*,*,#405,.T.);
#581=ORIENTED_EDGE('',*,*,#412,.T.);
#582=ORIENTED_EDGE('',*,*,#329,.F.);
#583=ORIENTED_EDGE('',*,*,#414,.F.);
#584=ORIENTED_EDGE('',*,*,#406,.T.);
#585=ORIENTED_EDGE('',*,*,#413,.T.);
#586=ORIENTED_EDGE('',*,*,#335,.F.);
#587=ORIENTED_EDGE('',*,*,#415,.F.);
#588=ORIENTED_EDGE('',*,*,#407,.T.);
#589=ORIENTED_EDGE('',*,*,#414,.T.);
#590=ORIENTED_EDGE('',*,*,#368,.F.);
#591=ORIENTED_EDGE('',*,*,#410,.F.);
#592=ORIENTED_EDGE('',*,*,#408,.T.);
#593=ORIENTED_EDGE('',*,*,#415,.T.);
#594=(
BOUNDED_SURFACE()
B_SPLINE_SURFACE(5,2,((#915,#916,#917,#918,#919,#920,#921,#922,#923),(#924,
#925,#926,#927,#928,#929,#930,#931,#932),(#933,#934,#935,#936,#937,#938,
#939,#940,#941),(#942,#943,#944,#945,#946,#947,#948,#949,#950),(#951,#952,
#953,#954,#955,#956,#957,#958,#959),(#960,#961,#962,#963,#964,#965,#966,
#967,#968),(#969,#970,#971,#972,#973,#974,#975,#976,#977),(#978,#979,#980,
#981,#982,#983,#984,#985,#986),(#987,#988,#989,#990,#991,#992,#993,#994,
#995),(#996,#997,#998,#999,#1000,#1001,#1002,#1003,#1004)),
 .UNSPECIFIED.,.F.,.T.,.F.)
B_SPLINE_SURFACE_WITH_KNOTS((6,1,1,1,1,6),(3,2,2,2,3),(0.,0.2,0.4,0.6,0.8,
1.),(0.,1.5707963267949,3.14159265358979,4.71238898038469,6.28318530717959),
 .UNSPECIFIED.)
GEOMETRIC_REPRESENTATION_ITEM()
RATIONAL_B_SPLINE_SURFACE(((1.,0.707106781186548,1.,0.707106781186548,1.,
0.707106781186548,1.,0.707106781186548,1.),(1.,0.707106781186548,1.,0.707106781186548,
1.,0.707106781186548,1.,0.707106781186548,1.),(1.,0.707106781186548,1.,
0.707106781186548,1.,0.707106781186548,1.,0.707106781186548,1.),(1.,0.707106781186548,
1.,0.707106781186548,1.,0.707106781186548,1.,0.707106781186548,1.),(1.,
0.707106781186548,1.,0.707106781186548,1.,0.707106781186548,1.,0.707106781186548,
1.),(1.,0.707106781186548,1.,0.707106781186548,1.,0.707106781186548,1.,
0.707106781186548,1.),(1.,0.707106781186548,1.,0.707106781186548,1.,0.707106781186548,
1.,0.707106781186548,1.),(1.,0.707106781186548,1.,0.707106781186548,1.,
0.707106781186548,1.,0.707106781186548,1.),(1.,0.707106781186548,1.,0.707106781186548,
1.,0.707106781186548,1.,0.707106781186548,1.),(1.,0.707106781186548,1.,
0.707106781186548,1.,0.707106781186548,1.,0.707106781186548,1.)))
REPRESENTATION_ITEM('')
SURFACE()
);
#595=(
BOUNDED_SURFACE()
B_SPLINE_SURFACE(2,2,((#1057,#1058,#1059),(#1060,#1061,#1062),(#1063,#1064,
#1065)),.UNSPECIFIED.,.F.,.F.,.F.)
B_SPLINE_SURFACE_WITH_KNOTS((3,3),(3,3),(0.,1.5707963267949),(1.5707963267949,
3.14159265358979),.UNSPECIFIED.)
GEOMETRIC_REPRESENTATION_ITEM()
RATIONAL_B_SPLINE_SURFACE(((1.,0.707106781186548,1.),(0.707106781186547,
0.5,0.707106781186547),(1.,0.707106781186548,1.)))
REPRESENTATION_ITEM('')
SURFACE()
);
#596=(
BOUNDED_SURFACE()
B_SPLINE_SURFACE(2,2,((#1089,#1090,#1091),(#1092,#1093,#1094),(#1095,#1096,
#1097)),.UNSPECIFIED.,.F.,.F.,.F.)
B_SPLINE_SURFACE_WITH_KNOTS((3,3),(3,3),(0.,1.5707963267949),(-3.14159265358979,
-1.5707963267949),.UNSPECIFIED.)
GEOMETRIC_REPRESENTATION_ITEM()
RATIONAL_B_SPLINE_SURFACE(((1.,0.707106781186548,1.),(0.707106781186547,
0.5,0.707106781186547),(1.,0.707106781186548,1.)))
REPRESENTATION_ITEM('')
SURFACE()
);
#597=(
BOUNDED_SURFACE()
B_SPLINE_SURFACE(2,2,((#1106,#1107,#1108),(#1109,#1110,#1111),(#1112,#1113,
#1114)),.UNSPECIFIED.,.F.,.F.,.F.)
B_SPLINE_SURFACE_WITH_KNOTS((3,3),(3,3),(0.,1.5707963267949),(-2.7755575615629E-15,
1.5707963267949),.UNSPECIFIED.)
GEOMETRIC_REPRESENTATION_ITEM()
RATIONAL_B_SPLINE_SURFACE(((1.,0.707106781186546,1.),(0.707106781186547,
0.499999999999999,0.707106781186547),(1.,0.707106781186546,1.)))
REPRESENTATION_ITEM('')
SURFACE()
);
#598=(
BOUNDED_SURFACE()
B_SPLINE_SURFACE(2,2,((#1129,#1130,#1131),(#1132,#1133,#1134),(#1135,#1136,
#1137)),.UNSPECIFIED.,.F.,.F.,.F.)
B_SPLINE_SURFACE_WITH_KNOTS((3,3),(3,3),(0.,1.5707963267949),(-1.5707963267949,
1.6062850670372E-15),.UNSPECIFIED.)
GEOMETRIC_REPRESENTATION_ITEM()
RATIONAL_B_SPLINE_SURFACE(((1.,0.707106781186546,1.),(0.707106781186545,
0.499999999999998,0.707106781186545),(1.,0.707106781186546,1.)))
REPRESENTATION_ITEM('')
SURFACE()
);
#599=ADVANCED_FACE('',(#165),#594,.F.);
#600=ADVANCED_FACE('',(#166),#148,.T.);
#601=ADVANCED_FACE('',(#167),#149,.T.);
#602=ADVANCED_FACE('',(#168),#150,.T.);
#603=ADVANCED_FACE('',(#169),#151,.T.);
#604=ADVANCED_FACE('',(#170),#152,.T.);
#605=ADVANCED_FACE('',(#171),#595,.F.);
#606=ADVANCED_FACE('',(#172),#153,.T.);
#607=ADVANCED_FACE('',(#173),#154,.T.);
#608=ADVANCED_FACE('',(#174),#155,.T.);
#609=ADVANCED_FACE('',(#175),#596,.F.);
#610=ADVANCED_FACE('',(#176),#156,.T.);
#611=ADVANCED_FACE('',(#177),#597,.F.);
#612=ADVANCED_FACE('',(#178),#157,.T.);
#613=ADVANCED_FACE('',(#179),#158,.T.);
#614=ADVANCED_FACE('',(#180),#598,.F.);
#615=ADVANCED_FACE('',(#181),#159,.T.);
#616=ADVANCED_FACE('',(#182),#19,.T.);
#617=ADVANCED_FACE('',(#183),#20,.T.);
#618=ADVANCED_FACE('',(#184),#160,.T.);
#619=ADVANCED_FACE('',(#185),#21,.T.);
#620=ADVANCED_FACE('',(#186),#22,.T.);
#621=ADVANCED_FACE('',(#187),#23,.T.);
#622=ADVANCED_FACE('',(#188),#161,.T.);
#623=ADVANCED_FACE('',(#189),#24,.T.);
#624=ADVANCED_FACE('',(#190,#17),#25,.T.);
#625=ADVANCED_FACE('',(#191),#15,.T.);
#626=ADVANCED_FACE('',(#192),#162,.T.);
#627=ADVANCED_FACE('',(#193),#16,.F.);
#628=ADVANCED_FACE('',(#194,#18),#26,.F.);
#629=ADVANCED_FACE('',(#195),#27,.F.);
#630=ADVANCED_FACE('',(#196),#163,.T.);
#631=ADVANCED_FACE('',(#197),#28,.T.);
#632=ADVANCED_FACE('',(#198),#29,.T.);
#633=ADVANCED_FACE('',(#199),#30,.T.);
#634=ADVANCED_FACE('',(#200),#164,.T.);
#635=ADVANCED_FACE('',(#201),#31,.T.);
#636=ADVANCED_FACE('',(#202),#32,.T.);
#637=ADVANCED_FACE('',(#203),#33,.T.);
#638=CLOSED_SHELL('',(#599,#600,#601,#602,#603,#604,#605,#606,#607,#608,
#609,#610,#611,#612,#613,#614,#615,#616,#617,#618,#619,#620,#621,#622,#623,
#624,#625,#626,#627,#628,#629,#630,#631,#632,#633,#634,#635,#636,#637));
#639=DERIVED_UNIT_ELEMENT(#641,1.);
#640=DERIVED_UNIT_ELEMENT(#1232,-3.);
#641=(
MASS_UNIT()
NAMED_UNIT(*)
SI_UNIT(.KILO.,.GRAM.)
);
#642=DERIVED_UNIT((#639,#640));
#643=MEASURE_REPRESENTATION_ITEM('density measure',
POSITIVE_RATIO_MEASURE(7850.),#642);
#644=PROPERTY_DEFINITION_REPRESENTATION(#649,#646);
#645=PROPERTY_DEFINITION_REPRESENTATION(#650,#647);
#646=REPRESENTATION('material name',(#648),#1229);
#647=REPRESENTATION('density',(#643),#1229);
#648=DESCRIPTIVE_REPRESENTATION_ITEM('Steel','Steel');
#649=PROPERTY_DEFINITION('material property','material name',#1239);
#650=PROPERTY_DEFINITION('material property','density of part',#1239);
#651=AXIS2_PLACEMENT_3D('',#914,#721,#722);
#652=AXIS2_PLACEMENT_3D('',#1017,#723,#724);
#653=AXIS2_PLACEMENT_3D('',#1018,#725,#726);
#654=AXIS2_PLACEMENT_3D('',#1023,#728,#729);
#655=AXIS2_PLACEMENT_3D('',#1026,#731,#732);
#656=AXIS2_PLACEMENT_3D('',#1027,#733,#734);
#657=AXIS2_PLACEMENT_3D('',#1031,#736,#737);
#658=AXIS2_PLACEMENT_3D('',#1033,#739,#740);
#659=AXIS2_PLACEMENT_3D('',#1038,#742,#743);
#660=AXIS2_PLACEMENT_3D('',#1041,#745,#746);
#661=AXIS2_PLACEMENT_3D('',#1042,#747,#748);
#662=AXIS2_PLACEMENT_3D('',#1046,#750,#751);
#663=AXIS2_PLACEMENT_3D('',#1048,#753,#754);
#664=AXIS2_PLACEMENT_3D('',#1053,#756,#757);
#665=AXIS2_PLACEMENT_3D('',#1056,#759,#760);
#666=AXIS2_PLACEMENT_3D('',#1068,#761,#762);
#667=AXIS2_PLACEMENT_3D('',#1069,#763,#764);
#668=AXIS2_PLACEMENT_3D('',#1070,#765,#766);
#669=AXIS2_PLACEMENT_3D('',#1071,#767,#768);
#670=AXIS2_PLACEMENT_3D('',#1074,#771,#772);
#671=AXIS2_PLACEMENT_3D('',#1079,#775,#776);
#672=AXIS2_PLACEMENT_3D('',#1080,#777,#778);
#673=AXIS2_PLACEMENT_3D('',#1085,#780,#781);
#674=AXIS2_PLACEMENT_3D('',#1088,#783,#784);
#675=AXIS2_PLACEMENT_3D('',#1100,#785,#786);
#676=AXIS2_PLACEMENT_3D('',#1101,#787,#788);
#677=AXIS2_PLACEMENT_3D('',#1102,#789,#790);
#678=AXIS2_PLACEMENT_3D('',#1103,#791,#792);
#679=AXIS2_PLACEMENT_3D('',#1117,#795,#796);
#680=AXIS2_PLACEMENT_3D('',#1118,#797,#798);
#681=AXIS2_PLACEMENT_3D('',#1119,#799,#800);
#682=AXIS2_PLACEMENT_3D('',#1120,#801,#802);
#683=AXIS2_PLACEMENT_3D('',#1123,#805,#806);
#684=AXIS2_PLACEMENT_3D('',#1128,#809,#810);
#685=AXIS2_PLACEMENT_3D('',#1140,#811,#812);
#686=AXIS2_PLACEMENT_3D('',#1141,#813,#814);
#687=AXIS2_PLACEMENT_3D('',#1142,#815,#816);
#688=AXIS2_PLACEMENT_3D('',#1143,#817,#818);
#689=AXIS2_PLACEMENT_3D('',#1146,#821,#822);
#690=AXIS2_PLACEMENT_3D('',#1152,#826,#827);
#691=AXIS2_PLACEMENT_3D('',#1156,#830,#831);
#692=AXIS2_PLACEMENT_3D('',#1159,#833,#834);
#693=AXIS2_PLACEMENT_3D('',#1160,#835,#836);
#694=AXIS2_PLACEMENT_3D('',#1164,#839,#840);
#695=AXIS2_PLACEMENT_3D('',#1168,#843,#844);
#696=AXIS2_PLACEMENT_3D('',#1172,#847,#848);
#697=AXIS2_PLACEMENT_3D('',#1175,#850,#851);
#698=AXIS2_PLACEMENT_3D('',#1176,#852,#853);
#699=AXIS2_PLACEMENT_3D('',#1180,#856,#857);
#700=AXIS2_PLACEMENT_3D('',#1182,#858,#859);
#701=AXIS2_PLACEMENT_3D('',#1183,#860,#861);
#702=AXIS2_PLACEMENT_3D('',#1185,#862,#863);
#703=AXIS2_PLACEMENT_3D('',#1186,#864,#865);
#704=AXIS2_PLACEMENT_3D('',#1187,#866,#867);
#705=AXIS2_PLACEMENT_3D('',#1190,#869,#870);
#706=AXIS2_PLACEMENT_3D('',#1191,#871,#872);
#707=AXIS2_PLACEMENT_3D('',#1193,#873,#874);
#708=AXIS2_PLACEMENT_3D('',#1194,#875,#876);
#709=AXIS2_PLACEMENT_3D('',#1195,#877,#878);
#710=AXIS2_PLACEMENT_3D('',#1196,#879,#880);
#711=AXIS2_PLACEMENT_3D('',#1199,#881,#882);
#712=AXIS2_PLACEMENT_3D('',#1206,#886,#887);
#713=AXIS2_PLACEMENT_3D('',#1212,#891,#892);
#714=AXIS2_PLACEMENT_3D('',#1215,#895,#896);
#715=AXIS2_PLACEMENT_3D('',#1216,#897,#898);
#716=AXIS2_PLACEMENT_3D('',#1218,#900,#901);
#717=AXIS2_PLACEMENT_3D('',#1220,#903,#904);
#718=AXIS2_PLACEMENT_3D('',#1222,#906,#907);
#719=AXIS2_PLACEMENT_3D('',#1224,#909,#910);
#720=AXIS2_PLACEMENT_3D('',#1226,#912,#913);
#721=DIRECTION('axis',(0.,0.,1.));
#722=DIRECTION('refdir',(1.,0.,0.));
#723=DIRECTION('center_axis',(-2.01548820800744E-15,7.51815042897294E-31,
1.));
#724=DIRECTION('ref_axis',(5.78327502436127E-16,1.,0.));
#725=DIRECTION('center_axis',(1.,5.95613210635814E-17,0.));
#726=DIRECTION('ref_axis',(0.,-0.707106781186548,0.707106781186548));
#727=DIRECTION('',(1.,5.95613210635814E-17,0.));
#728=DIRECTION('center_axis',(-1.,0.,0.));
#729=DIRECTION('ref_axis',(0.,-1.,0.));
#730=DIRECTION('',(-1.,-5.95613210635814E-17,0.));
#731=DIRECTION('center_axis',(0.707106781186547,0.707106781186548,0.));
#732=DIRECTION('ref_axis',(-0.707106781186548,0.707106781186547,0.));
#733=DIRECTION('center_axis',(0.,1.,0.));
#734=DIRECTION('ref_axis',(0.707106781186548,0.,0.707106781186548));
#735=DIRECTION('',(0.,-1.,0.));
#736=DIRECTION('center_axis',(-0.707106781186548,0.707106781186548,0.));
#737=DIRECTION('ref_axis',(-0.707106781186547,-0.707106781186547,0.));
#738=DIRECTION('',(0.,1.,0.));
#739=DIRECTION('center_axis',(-5.95613210635814E-17,1.,0.));
#740=DIRECTION('ref_axis',(0.707106781186548,0.,0.707106781186548));
#741=DIRECTION('',(-5.95613210635814E-17,1.,0.));
#742=DIRECTION('center_axis',(0.,-1.,0.));
#743=DIRECTION('ref_axis',(1.,0.,0.));
#744=DIRECTION('',(5.95613210635814E-17,-1.,0.));
#745=DIRECTION('center_axis',(-0.707106781186548,0.707106781186547,0.));
#746=DIRECTION('ref_axis',(-0.707106781186547,-0.707106781186548,0.));
#747=DIRECTION('center_axis',(-1.,0.,0.));
#748=DIRECTION('ref_axis',(0.,0.707106781186548,0.707106781186548));
#749=DIRECTION('',(1.,0.,0.));
#750=DIRECTION('center_axis',(-0.707106781186548,-0.707106781186547,0.));
#751=DIRECTION('ref_axis',(0.707106781186547,-0.707106781186548,0.));
#752=DIRECTION('',(-1.,0.,0.));
#753=DIRECTION('center_axis',(-1.,0.,0.));
#754=DIRECTION('ref_axis',(0.,0.707106781186547,0.707106781186548));
#755=DIRECTION('',(-1.,0.,0.));
#756=DIRECTION('center_axis',(1.,0.,0.));
#757=DIRECTION('ref_axis',(0.,1.,0.));
#758=DIRECTION('',(1.,0.,0.));
#759=DIRECTION('center_axis',(-0.707106781186547,-0.707106781186548,0.));
#760=DIRECTION('ref_axis',(0.707106781186548,-0.707106781186547,0.));
#761=DIRECTION('center_axis',(-6.93889390390723E-16,1.,0.));
#762=DIRECTION('ref_axis',(-1.,-6.93889390390723E-16,0.));
#763=DIRECTION('center_axis',(0.,0.,-1.));
#764=DIRECTION('ref_axis',(-0.707106781186548,0.707106781186547,0.));
#765=DIRECTION('center_axis',(0.,0.,1.));
#766=DIRECTION('ref_axis',(-0.707106781186548,0.707106781186547,0.));
#767=DIRECTION('center_axis',(-1.19122642127163E-16,-1.,0.));
#768=DIRECTION('ref_axis',(-0.707106781186547,0.,0.707106781186548));
#769=DIRECTION('',(1.19122642127163E-16,1.,0.));
#770=DIRECTION('',(-1.19122642127163E-16,-1.,0.));
#771=DIRECTION('center_axis',(0.,-1.,0.));
#772=DIRECTION('ref_axis',(-0.707106781186548,0.,0.707106781186548));
#773=DIRECTION('',(0.,-1.,0.));
#774=DIRECTION('',(0.,1.,0.));
#775=DIRECTION('center_axis',(0.707106781186547,-0.707106781186548,0.));
#776=DIRECTION('ref_axis',(0.707106781186548,0.707106781186547,0.));
#777=DIRECTION('center_axis',(5.95613210635814E-17,-1.,0.));
#778=DIRECTION('ref_axis',(-0.707106781186547,0.,0.707106781186548));
#779=DIRECTION('',(5.95613210635814E-17,-1.,0.));
#780=DIRECTION('center_axis',(0.,1.,0.));
#781=DIRECTION('ref_axis',(-1.,0.,0.));
#782=DIRECTION('',(-5.95613210635814E-17,1.,0.));
#783=DIRECTION('center_axis',(0.707106781186548,-0.707106781186547,0.));
#784=DIRECTION('ref_axis',(0.707106781186547,0.707106781186548,0.));
#785=DIRECTION('center_axis',(-1.,0.,0.));
#786=DIRECTION('ref_axis',(0.,-1.,0.));
#787=DIRECTION('center_axis',(0.,0.,-1.));
#788=DIRECTION('ref_axis',(-0.707106781186548,-0.707106781186547,0.));
#789=DIRECTION('center_axis',(0.,0.,1.));
#790=DIRECTION('ref_axis',(-0.707106781186548,-0.707106781186547,0.));
#791=DIRECTION('center_axis',(1.,0.,0.));
#792=DIRECTION('ref_axis',(0.,-0.707106781186547,0.707106781186548));
#793=DIRECTION('',(-1.,0.,0.));
#794=DIRECTION('',(1.,0.,0.));
#795=DIRECTION('center_axis',(1.,-6.93889390390723E-16,0.));
#796=DIRECTION('ref_axis',(6.93889390390723E-16,1.,0.));
#797=DIRECTION('center_axis',(0.,0.,-1.));
#798=DIRECTION('ref_axis',(0.707106781186548,0.707106781186547,0.));
#799=DIRECTION('center_axis',(0.,0.,1.));
#800=DIRECTION('ref_axis',(0.707106781186548,0.707106781186547,0.));
#801=DIRECTION('center_axis',(-1.,-1.19122642127163E-16,0.));
#802=DIRECTION('ref_axis',(0.,0.707106781186548,0.707106781186548));
#803=DIRECTION('',(1.,1.19122642127163E-16,0.));
#804=DIRECTION('',(-1.,-1.19122642127163E-16,0.));
#805=DIRECTION('center_axis',(1.,0.,0.));
#806=DIRECTION('ref_axis',(0.,-0.707106781186548,0.707106781186548));
#807=DIRECTION('',(1.,0.,0.));
#808=DIRECTION('',(-1.,0.,0.));
#809=DIRECTION('center_axis',(0.707106781186548,0.707106781186547,0.));
#810=DIRECTION('ref_axis',(-0.707106781186547,0.707106781186548,0.));
#811=DIRECTION('center_axis',(1.38777878078145E-15,-1.,0.));
#812=DIRECTION('ref_axis',(1.,1.38777878078145E-15,0.));
#813=DIRECTION('center_axis',(0.,0.,-1.));
#814=DIRECTION('ref_axis',(0.707106781186548,-0.707106781186547,0.));
#815=DIRECTION('center_axis',(0.,0.,1.));
#816=DIRECTION('ref_axis',(0.707106781186548,-0.707106781186547,0.));
#817=DIRECTION('center_axis',(5.95613210635814E-17,1.,0.));
#818=DIRECTION('ref_axis',(0.707106781186548,0.,0.707106781186548));
#819=DIRECTION('',(-5.95613210635814E-17,-1.,0.));
#820=DIRECTION('',(5.95613210635814E-17,1.,0.));
#821=DIRECTION('center_axis',(0.,1.,0.));
#822=DIRECTION('ref_axis',(-1.,0.,0.));
#823=DIRECTION('',(0.,0.,1.));
#824=DIRECTION('',(-1.,0.,0.));
#825=DIRECTION('',(0.,0.,1.));
#826=DIRECTION('center_axis',(-1.,1.19122642127163E-16,0.));
#827=DIRECTION('ref_axis',(-1.19122642127163E-16,-1.,0.));
#828=DIRECTION('',(0.,0.,1.));
#829=DIRECTION('',(-1.19122642127163E-16,-1.,0.));
#830=DIRECTION('center_axis',(0.,0.,1.));
#831=DIRECTION('ref_axis',(-9.25185853854297E-16,1.,0.));
#832=DIRECTION('',(0.,0.,1.));
#833=DIRECTION('center_axis',(0.,0.,1.));
#834=DIRECTION('ref_axis',(-9.25185853854297E-16,1.,0.));
#835=DIRECTION('center_axis',(0.,1.,0.));
#836=DIRECTION('ref_axis',(-1.,0.,0.));
#837=DIRECTION('',(0.,0.,1.));
#838=DIRECTION('',(-1.,0.,0.));
#839=DIRECTION('center_axis',(-1.,0.,0.));
#840=DIRECTION('ref_axis',(0.,-1.,0.));
#841=DIRECTION('',(0.,0.,1.));
#842=DIRECTION('',(0.,-1.,0.));
#843=DIRECTION('center_axis',(0.,-1.,0.));
#844=DIRECTION('ref_axis',(1.,0.,0.));
#845=DIRECTION('',(0.,0.,1.));
#846=DIRECTION('',(1.,0.,0.));
#847=DIRECTION('center_axis',(0.,0.,1.));
#848=DIRECTION('ref_axis',(-1.,4.62592926927149E-16,0.));
#849=DIRECTION('',(0.,0.,1.));
#850=DIRECTION('center_axis',(0.,0.,1.));
#851=DIRECTION('ref_axis',(-1.,4.62592926927149E-16,0.));
#852=DIRECTION('center_axis',(-1.,-5.95613210635814E-17,0.));
#853=DIRECTION('ref_axis',(5.95613210635814E-17,-1.,0.));
#854=DIRECTION('',(0.,0.,1.));
#855=DIRECTION('',(5.95613210635814E-17,-1.,0.));
#856=DIRECTION('center_axis',(0.,0.,1.));
#857=DIRECTION('ref_axis',(1.,0.,0.));
#858=DIRECTION('center_axis',(0.,0.,-1.));
#859=DIRECTION('ref_axis',(1.,0.,0.));
#860=DIRECTION('center_axis',(0.,0.,1.));
#861=DIRECTION('ref_axis',(1.,0.,0.));
#862=DIRECTION('center_axis',(1.22464679914735E-16,-1.,0.));
#863=DIRECTION('ref_axis',(-1.,-1.22464679914735E-16,0.));
#864=DIRECTION('center_axis',(0.,0.,1.));
#865=DIRECTION('ref_axis',(1.,0.,0.));
#866=DIRECTION('center_axis',(0.,0.,1.));
#867=DIRECTION('ref_axis',(1.,0.,0.));
#868=DIRECTION('',(0.,0.,-1.));
#869=DIRECTION('center_axis',(0.,0.,-1.));
#870=DIRECTION('ref_axis',(1.,0.,0.));
#871=DIRECTION('center_axis',(0.,0.,1.));
#872=DIRECTION('ref_axis',(1.,0.,0.));
#873=DIRECTION('center_axis',(0.,0.,1.));
#874=DIRECTION('ref_axis',(1.,0.,0.));
#875=DIRECTION('center_axis',(1.22464679914735E-16,-1.,0.));
#876=DIRECTION('ref_axis',(-1.,-1.22464679914735E-16,0.));
#877=DIRECTION('center_axis',(0.,0.,-1.));
#878=DIRECTION('ref_axis',(1.,0.,0.));
#879=DIRECTION('center_axis',(0.,0.,-1.));
#880=DIRECTION('ref_axis',(1.,0.,0.));
#881=DIRECTION('center_axis',(0.,0.,1.));
#882=DIRECTION('ref_axis',(1.,-9.25185853854298E-16,0.));
#883=DIRECTION('',(-5.95613210635814E-17,1.,0.));
#884=DIRECTION('',(1.,0.,0.));
#885=DIRECTION('',(5.95613210635814E-17,1.,0.));
#886=DIRECTION('center_axis',(0.,0.,1.));
#887=DIRECTION('ref_axis',(-4.62592926927149E-16,-1.,0.));
#888=DIRECTION('',(1.,5.95613210635814E-17,0.));
#889=DIRECTION('',(0.,1.,0.));
#890=DIRECTION('',(-1.,-1.19122642127163E-16,0.));
#891=DIRECTION('center_axis',(0.,0.,1.));
#892=DIRECTION('ref_axis',(1.,-9.25185853854298E-16,0.));
#893=DIRECTION('',(0.,0.,1.));
#894=DIRECTION('',(0.,0.,1.));
#895=DIRECTION('center_axis',(1.,5.95613210635814E-17,0.));
#896=DIRECTION('ref_axis',(-5.95613210635814E-17,1.,0.));
#897=DIRECTION('center_axis',(0.,-1.,0.));
#898=DIRECTION('ref_axis',(1.,0.,0.));
#899=DIRECTION('',(0.,0.,1.));
#900=DIRECTION('center_axis',(1.,-5.95613210635814E-17,0.));
#901=DIRECTION('ref_axis',(5.95613210635814E-17,1.,0.));
#902=DIRECTION('',(0.,0.,1.));
#903=DIRECTION('center_axis',(0.,0.,1.));
#904=DIRECTION('ref_axis',(-4.62592926927149E-16,-1.,0.));
#905=DIRECTION('',(0.,0.,1.));
#906=DIRECTION('center_axis',(5.95613210635814E-17,-1.,0.));
#907=DIRECTION('ref_axis',(1.,5.95613210635814E-17,0.));
#908=DIRECTION('',(0.,0.,1.));
#909=DIRECTION('center_axis',(1.,0.,0.));
#910=DIRECTION('ref_axis',(0.,1.,0.));
#911=DIRECTION('',(0.,0.,1.));
#912=DIRECTION('center_axis',(-1.19122642127163E-16,1.,0.));
#913=DIRECTION('ref_axis',(-1.,-1.19122642127163E-16,0.));
#914=CARTESIAN_POINT('',(0.,0.,0.));
#915=CARTESIAN_POINT('Ctrl Pts',(-5.55111512312578E-16,4.,0.));
#916=CARTESIAN_POINT('Ctrl Pts',(4.,4.,8.06195283202975E-15));
#917=CARTESIAN_POINT('Ctrl Pts',(4.,-2.31331000974451E-15,8.06195283202975E-15));
#918=CARTESIAN_POINT('Ctrl Pts',(3.99999999999999,-4.,8.06195283202975E-15));
#919=CARTESIAN_POINT('Ctrl Pts',(-5.1817315318016E-15,-4.,0.));
#920=CARTESIAN_POINT('Ctrl Pts',(-4.,-4.,-8.06195283202975E-15));
#921=CARTESIAN_POINT('Ctrl Pts',(-4.,2.31331000974451E-15,-8.06195283202975E-15));
#922=CARTESIAN_POINT('Ctrl Pts',(-4.,4.,-8.06195283202975E-15));
#923=CARTESIAN_POINT('Ctrl Pts',(-5.55111512312578E-16,4.,0.));
#924=CARTESIAN_POINT('Ctrl Pts',(-5.55111512312578E-16,3.91123814823274,
-0.133142837170378));
#925=CARTESIAN_POINT('Ctrl Pts',(3.91123814823274,3.91123814823274,-0.13314283717037));
#926=CARTESIAN_POINT('Ctrl Pts',(3.91123814823274,-2.04496219144696E-15,
-0.13314283717037));
#927=CARTESIAN_POINT('Ctrl Pts',(3.91123814823273,-3.91123814823274,-0.13314283717037));
#928=CARTESIAN_POINT('Ctrl Pts',(-4.64503589520649E-15,-3.91123814823274,
-0.133142837170378));
#929=CARTESIAN_POINT('Ctrl Pts',(-3.91123814823274,-3.91123814823274,-0.133142837170386));
#930=CARTESIAN_POINT('Ctrl Pts',(-3.91123814823274,2.04496219144696E-15,
-0.133142837170386));
#931=CARTESIAN_POINT('Ctrl Pts',(-3.91123814823274,3.91123814823274,-0.133142837170386));
#932=CARTESIAN_POINT('Ctrl Pts',(-5.55111512312578E-16,3.91123814823274,
-0.133142837170378));
#933=CARTESIAN_POINT('Ctrl Pts',(-5.43775974896351E-16,3.71262053001822,
-0.368562576103136));
#934=CARTESIAN_POINT('Ctrl Pts',(3.71262053001822,3.71262053001822,-0.368562576103128));
#935=CARTESIAN_POINT('Ctrl Pts',(3.71262053001822,-1.58181202111202E-15,
-0.368562576103128));
#936=CARTESIAN_POINT('Ctrl Pts',(3.71262053001821,-3.71262053001822,-0.368562576103128));
#937=CARTESIAN_POINT('Ctrl Pts',(-3.70740001712039E-15,-3.71262053001822,
-0.368562576103136));
#938=CARTESIAN_POINT('Ctrl Pts',(-3.71262053001822,-3.71262053001822,-0.368562576103143));
#939=CARTESIAN_POINT('Ctrl Pts',(-3.71262053001822,1.58181202111202E-15,
-0.368562576103143));
#940=CARTESIAN_POINT('Ctrl Pts',(-3.71262053001822,3.71262053001822,-0.368562576103143));
#941=CARTESIAN_POINT('Ctrl Pts',(-5.43775974896351E-16,3.71262053001822,
-0.368562576103136));
#942=CARTESIAN_POINT('Ctrl Pts',(-4.92801268646947E-16,3.35146957396829,
-0.629180070529405));
#943=CARTESIAN_POINT('Ctrl Pts',(3.35146957396829,3.35146957396829,-0.629180070529399));
#944=CARTESIAN_POINT('Ctrl Pts',(3.35146957396829,-1.10751524054483E-15,
-0.629180070529399));
#945=CARTESIAN_POINT('Ctrl Pts',(3.35146957396829,-3.35146957396829,-0.629180070529399));
#946=CARTESIAN_POINT('Ctrl Pts',(-2.70783174973662E-15,-3.35146957396829,
-0.629180070529405));
#947=CARTESIAN_POINT('Ctrl Pts',(-3.35146957396829,-3.35146957396829,-0.629180070529412));
#948=CARTESIAN_POINT('Ctrl Pts',(-3.35146957396829,1.10751524054484E-15,
-0.629180070529412));
#949=CARTESIAN_POINT('Ctrl Pts',(-3.35146957396829,3.35146957396829,-0.629180070529412));
#950=CARTESIAN_POINT('Ctrl Pts',(-4.92801268646947E-16,3.35146957396829,
-0.629180070529405));
#951=CARTESIAN_POINT('Ctrl Pts',(-3.7026359256983E-16,2.7611784925861,-0.819240289650013));
#952=CARTESIAN_POINT('Ctrl Pts',(2.7611784925861,2.7611784925861,-0.819240289650007));
#953=CARTESIAN_POINT('Ctrl Pts',(2.7611784925861,-8.46988786173058E-16,
-0.819240289650007));
#954=CARTESIAN_POINT('Ctrl Pts',(2.7611784925861,-2.7611784925861,-0.819240289650007));
#955=CARTESIAN_POINT('Ctrl Pts',(-2.06424116491595E-15,-2.7611784925861,
-0.819240289650013));
#956=CARTESIAN_POINT('Ctrl Pts',(-2.7611784925861,-2.7611784925861,-0.819240289650018));
#957=CARTESIAN_POINT('Ctrl Pts',(-2.7611784925861,8.46988786173059E-16,
-0.819240289650018));
#958=CARTESIAN_POINT('Ctrl Pts',(-2.7611784925861,2.7611784925861,-0.819240289650018));
#959=CARTESIAN_POINT('Ctrl Pts',(-3.7026359256983E-16,2.7611784925861,-0.819240289650013));
#960=CARTESIAN_POINT('Ctrl Pts',(-1.84847919742781E-16,1.90442181265768,
-0.896814427272403));
#961=CARTESIAN_POINT('Ctrl Pts',(1.90442181265768,1.90442181265768,-0.896814427272399));
#962=CARTESIAN_POINT('Ctrl Pts',(1.90442181265768,-8.76054699375833E-16,
-0.896814427272399));
#963=CARTESIAN_POINT('Ctrl Pts',(1.90442181265768,-1.90442181265768,-0.896814427272399));
#964=CARTESIAN_POINT('Ctrl Pts',(-1.93695731849445E-15,-1.90442181265768,
-0.896814427272403));
#965=CARTESIAN_POINT('Ctrl Pts',(-1.90442181265769,-1.90442181265768,-0.896814427272407));
#966=CARTESIAN_POINT('Ctrl Pts',(-1.90442181265769,8.76054699375833E-16,
-0.896814427272407));
#967=CARTESIAN_POINT('Ctrl Pts',(-1.90442181265768,1.90442181265768,-0.896814427272407));
#968=CARTESIAN_POINT('Ctrl Pts',(-1.84847919742781E-16,1.90442181265768,
-0.896814427272403));
#969=CARTESIAN_POINT('Ctrl Pts',(-6.23102436656502E-17,1.16326137833951,
-0.901902300125374));
#970=CARTESIAN_POINT('Ctrl Pts',(1.16326137833951,1.16326137833951,-0.901902300125371));
#971=CARTESIAN_POINT('Ctrl Pts',(1.16326137833951,-9.8833782771396E-16,
-0.901902300125371));
#972=CARTESIAN_POINT('Ctrl Pts',(1.16326137833951,-1.16326137833951,-0.901902300125371));
#973=CARTESIAN_POINT('Ctrl Pts',(-2.03898589909357E-15,-1.16326137833951,
-0.901902300125374));
#974=CARTESIAN_POINT('Ctrl Pts',(-1.16326137833951,-1.16326137833951,-0.901902300125376));
#975=CARTESIAN_POINT('Ctrl Pts',(-1.16326137833951,9.88337827713961E-16,
-0.901902300125376));
#976=CARTESIAN_POINT('Ctrl Pts',(-1.16326137833951,1.16326137833951,-0.901902300125376));
#977=CARTESIAN_POINT('Ctrl Pts',(-6.23102436656502E-17,1.16326137833951,
-0.901902300125374));
#978=CARTESIAN_POINT('Ctrl Pts',(-1.13355374162301E-17,0.588274656531236,
-0.900347905174989));
#979=CARTESIAN_POINT('Ctrl Pts',(0.588274656531236,0.588274656531235,-0.900347905174988));
#980=CARTESIAN_POINT('Ctrl Pts',(0.588274656531235,-1.04244539865647E-15,
-0.900347905174988));
#981=CARTESIAN_POINT('Ctrl Pts',(0.588274656531234,-0.588274656531237,-0.900347905174988));
#982=CARTESIAN_POINT('Ctrl Pts',(-2.09622633472916E-15,-0.588274656531236,
-0.900347905174989));
#983=CARTESIAN_POINT('Ctrl Pts',(-0.588274656531238,-0.588274656531235,
-0.90034790517499));
#984=CARTESIAN_POINT('Ctrl Pts',(-0.588274656531237,1.04244539865647E-15,
-0.90034790517499));
#985=CARTESIAN_POINT('Ctrl Pts',(-0.588274656531236,0.588274656531237,-0.90034790517499));
#986=CARTESIAN_POINT('Ctrl Pts',(-1.13355374162301E-17,0.588274656531236,
-0.900347905174989));
#987=CARTESIAN_POINT('Ctrl Pts',(0.,0.197357401844166,-0.899999979883432));
#988=CARTESIAN_POINT('Ctrl Pts',(0.197357401844166,0.197357401844165,-0.899999979883432));
#989=CARTESIAN_POINT('Ctrl Pts',(0.197357401844165,-1.0544821753951E-15,
-0.899999979883432));
#990=CARTESIAN_POINT('Ctrl Pts',(0.197357401844164,-0.197357401844167,-0.899999979883432));
#991=CARTESIAN_POINT('Ctrl Pts',(-2.10896435079019E-15,-0.197357401844166,
-0.899999979883432));
#992=CARTESIAN_POINT('Ctrl Pts',(-0.197357401844168,-0.197357401844165,
-0.899999979883433));
#993=CARTESIAN_POINT('Ctrl Pts',(-0.197357401844167,1.0544821753951E-15,
-0.899999979883433));
#994=CARTESIAN_POINT('Ctrl Pts',(-0.197357401844166,0.197357401844167,-0.899999979883433));
#995=CARTESIAN_POINT('Ctrl Pts',(0.,0.197357401844166,-0.899999979883432));
#996=CARTESIAN_POINT('Ctrl Pts',(0.,0.,-0.899999979883432));
#997=CARTESIAN_POINT('Ctrl Pts',(-6.16297582203915E-31,-1.0544821753951E-15,
-0.899999979883432));
#998=CARTESIAN_POINT('Ctrl Pts',(-1.0544821753951E-15,-1.0544821753951E-15,
-0.899999979883432));
#999=CARTESIAN_POINT('Ctrl Pts',(-2.10896435079019E-15,-1.0544821753951E-15,
-0.899999979883432));
#1000=CARTESIAN_POINT('Ctrl Pts',(-2.10896435079019E-15,7.86683403831823E-31,
-0.899999979883432));
#1001=CARTESIAN_POINT('Ctrl Pts',(-2.10896435079019E-15,1.0544821753951E-15,
-0.899999979883432));
#1002=CARTESIAN_POINT('Ctrl Pts',(-1.0544821753951E-15,1.0544821753951E-15,
-0.899999979883432));
#1003=CARTESIAN_POINT('Ctrl Pts',(1.23259516440783E-31,1.0544821753951E-15,
-0.899999979883432));
#1004=CARTESIAN_POINT('Ctrl Pts',(0.,0.,-0.899999979883432));
#1005=CARTESIAN_POINT('',(-5.55111512312578E-16,4.,0.));
#1006=CARTESIAN_POINT('',(0.,0.,-0.899999979883432));
#1007=CARTESIAN_POINT('Ctrl Pts',(-5.55111512312578E-16,4.,0.));
#1008=CARTESIAN_POINT('Ctrl Pts',(-5.55111512312578E-16,3.91123814823274,
-0.133142837170378));
#1009=CARTESIAN_POINT('Ctrl Pts',(-5.43775974896351E-16,3.71262053001822,
-0.368562576103136));
#1010=CARTESIAN_POINT('Ctrl Pts',(-4.92801268646947E-16,3.35146957396829,
-0.629180070529405));
#1011=CARTESIAN_POINT('Ctrl Pts',(-3.7026359256983E-16,2.7611784925861,
-0.819240289650013));
#1012=CARTESIAN_POINT('Ctrl Pts',(-1.84847919742781E-16,1.90442181265768,
-0.896814427272403));
#1013=CARTESIAN_POINT('Ctrl Pts',(-6.23102436656502E-17,1.16326137833951,
-0.901902300125374));
#1014=CARTESIAN_POINT('Ctrl Pts',(-1.13355374162301E-17,0.588274656531236,
-0.900347905174989));
#1015=CARTESIAN_POINT('Ctrl Pts',(0.,0.197357401844166,-0.899999979883432));
#1016=CARTESIAN_POINT('Ctrl Pts',(0.,0.,-0.899999979883432));
#1017=CARTESIAN_POINT('Origin',(-2.86842152205709E-15,1.06997522539954E-30,
0.));
#1018=CARTESIAN_POINT('Origin',(-1.025,0.785,3.1));
#1019=CARTESIAN_POINT('',(-2.05,0.585,3.1));
#1020=CARTESIAN_POINT('',(-0.885,0.585,3.1));
#1021=CARTESIAN_POINT('',(-1.025,0.585,3.1));
#1022=CARTESIAN_POINT('',(-0.885,0.785,3.3));
#1023=CARTESIAN_POINT('Origin',(-0.885,0.785,3.1));
#1024=CARTESIAN_POINT('',(-2.25,0.785,3.3));
#1025=CARTESIAN_POINT('',(-1.025,0.785,3.3));
#1026=CARTESIAN_POINT('Origin',(-2.25,0.785,3.1));
#1027=CARTESIAN_POINT('Origin',(-2.25,-0.2925,3.1));
#1028=CARTESIAN_POINT('',(-2.25,-0.785,3.3));
#1029=CARTESIAN_POINT('',(-2.25,-0.2925,3.3));
#1030=CARTESIAN_POINT('',(-2.05,-0.585,3.1));
#1031=CARTESIAN_POINT('Origin',(-2.25,-0.785,3.1));
#1032=CARTESIAN_POINT('',(-2.05,-0.2925,3.1));
#1033=CARTESIAN_POINT('Origin',(-0.785,-1.025,3.1));
#1034=CARTESIAN_POINT('',(-0.585,-2.05,3.1));
#1035=CARTESIAN_POINT('',(-0.585,-0.885,3.1));
#1036=CARTESIAN_POINT('',(-0.585,-1.025,3.1));
#1037=CARTESIAN_POINT('',(-0.785,-0.885,3.3));
#1038=CARTESIAN_POINT('Origin',(-0.785,-0.885,3.1));
#1039=CARTESIAN_POINT('',(-0.785,-2.25,3.3));
#1040=CARTESIAN_POINT('',(-0.785,-1.025,3.3));
#1041=CARTESIAN_POINT('Origin',(-0.785,-2.25,3.1));
#1042=CARTESIAN_POINT('Origin',(0.2925,-2.25,3.1));
#1043=CARTESIAN_POINT('',(0.785,-2.25,3.3));
#1044=CARTESIAN_POINT('',(0.2925,-2.25,3.3));
#1045=CARTESIAN_POINT('',(0.585,-2.05,3.1));
#1046=CARTESIAN_POINT('Origin',(0.785,-2.25,3.1));
#1047=CARTESIAN_POINT('',(0.2925,-2.05,3.1));
#1048=CARTESIAN_POINT('Origin',(1.025,-0.785,3.1));
#1049=CARTESIAN_POINT('',(2.05,-0.585,3.1));
#1050=CARTESIAN_POINT('',(0.885,-0.585,3.1));
#1051=CARTESIAN_POINT('',(1.025,-0.585,3.1));
#1052=CARTESIAN_POINT('',(0.885,-0.785,3.3));
#1053=CARTESIAN_POINT('Origin',(0.885,-0.785,3.1));
#1054=CARTESIAN_POINT('',(2.25,-0.785,3.3));
#1055=CARTESIAN_POINT('',(1.025,-0.785,3.3));
#1056=CARTESIAN_POINT('Origin',(2.25,-0.785,3.1));
#1057=CARTESIAN_POINT('Ctrl Pts',(0.885,-0.585,3.1));
#1058=CARTESIAN_POINT('Ctrl Pts',(0.585,-0.585,3.1));
#1059=CARTESIAN_POINT('Ctrl Pts',(0.585,-0.885,3.1));
#1060=CARTESIAN_POINT('Ctrl Pts',(0.885,-0.585,3.3));
#1061=CARTESIAN_POINT('Ctrl Pts',(0.585,-0.585,3.3));
#1062=CARTESIAN_POINT('Ctrl Pts',(0.585,-0.885,3.3));
#1063=CARTESIAN_POINT('Ctrl Pts',(0.885,-0.785,3.3));
#1064=CARTESIAN_POINT('Ctrl Pts',(0.785,-0.785,3.3));
#1065=CARTESIAN_POINT('Ctrl Pts',(0.785,-0.885,3.3));
#1066=CARTESIAN_POINT('',(0.585,-0.885,3.1));
#1067=CARTESIAN_POINT('',(0.785,-0.885,3.3));
#1068=CARTESIAN_POINT('Origin',(0.785,-0.885,3.1));
#1069=CARTESIAN_POINT('Origin',(0.885,-0.885,3.3));
#1070=CARTESIAN_POINT('Origin',(0.885,-0.885,3.1));
#1071=CARTESIAN_POINT('Origin',(0.785,-0.4425,3.1));
#1072=CARTESIAN_POINT('',(0.785,-0.4425,3.3));
#1073=CARTESIAN_POINT('',(0.585,-0.4425,3.1));
#1074=CARTESIAN_POINT('Origin',(2.25,0.2925,3.1));
#1075=CARTESIAN_POINT('',(2.05,0.585,3.1));
#1076=CARTESIAN_POINT('',(2.05,0.2925,3.1));
#1077=CARTESIAN_POINT('',(2.25,0.785,3.3));
#1078=CARTESIAN_POINT('',(2.25,0.2925,3.3));
#1079=CARTESIAN_POINT('Origin',(2.25,0.785,3.1));
#1080=CARTESIAN_POINT('Origin',(0.785,1.025,3.1));
#1081=CARTESIAN_POINT('',(0.585,2.05,3.1));
#1082=CARTESIAN_POINT('',(0.585,0.885,3.1));
#1083=CARTESIAN_POINT('',(0.585,1.025,3.1));
#1084=CARTESIAN_POINT('',(0.785,0.885,3.3));
#1085=CARTESIAN_POINT('Origin',(0.785,0.885,3.1));
#1086=CARTESIAN_POINT('',(0.785,2.25,3.3));
#1087=CARTESIAN_POINT('',(0.785,1.025,3.3));
#1088=CARTESIAN_POINT('Origin',(0.785,2.25,3.1));
#1089=CARTESIAN_POINT('Ctrl Pts',(0.585,0.885,3.1));
#1090=CARTESIAN_POINT('Ctrl Pts',(0.585,0.585,3.1));
#1091=CARTESIAN_POINT('Ctrl Pts',(0.885,0.585,3.1));
#1092=CARTESIAN_POINT('Ctrl Pts',(0.585,0.885,3.3));
#1093=CARTESIAN_POINT('Ctrl Pts',(0.585,0.585,3.3));
#1094=CARTESIAN_POINT('Ctrl Pts',(0.885,0.585,3.3));
#1095=CARTESIAN_POINT('Ctrl Pts',(0.785,0.885,3.3));
#1096=CARTESIAN_POINT('Ctrl Pts',(0.785,0.785,3.3));
#1097=CARTESIAN_POINT('Ctrl Pts',(0.885,0.785,3.3));
#1098=CARTESIAN_POINT('',(0.885,0.585,3.1));
#1099=CARTESIAN_POINT('',(0.885,0.785,3.3));
#1100=CARTESIAN_POINT('Origin',(0.885,0.785,3.1));
#1101=CARTESIAN_POINT('Origin',(0.885,0.885,3.3));
#1102=CARTESIAN_POINT('Origin',(0.885,0.885,3.1));
#1103=CARTESIAN_POINT('Origin',(0.4425,0.785,3.1));
#1104=CARTESIAN_POINT('',(0.4425,0.785,3.3));
#1105=CARTESIAN_POINT('',(0.4425,0.585,3.1));
#1106=CARTESIAN_POINT('Ctrl Pts',(-0.585,-0.885,3.1));
#1107=CARTESIAN_POINT('Ctrl Pts',(-0.584999999999999,-0.584999999999999,
3.1));
#1108=CARTESIAN_POINT('Ctrl Pts',(-0.885,-0.585,3.1));
#1109=CARTESIAN_POINT('Ctrl Pts',(-0.585,-0.885,3.3));
#1110=CARTESIAN_POINT('Ctrl Pts',(-0.584999999999999,-0.584999999999999,
3.3));
#1111=CARTESIAN_POINT('Ctrl Pts',(-0.885,-0.585,3.3));
#1112=CARTESIAN_POINT('Ctrl Pts',(-0.785,-0.885,3.3));
#1113=CARTESIAN_POINT('Ctrl Pts',(-0.785,-0.785,3.3));
#1114=CARTESIAN_POINT('Ctrl Pts',(-0.885,-0.785,3.3));
#1115=CARTESIAN_POINT('',(-0.885,-0.585,3.1));
#1116=CARTESIAN_POINT('',(-0.885,-0.785,3.3));
#1117=CARTESIAN_POINT('Origin',(-0.885,-0.785,3.1));
#1118=CARTESIAN_POINT('Origin',(-0.885,-0.885,3.3));
#1119=CARTESIAN_POINT('Origin',(-0.885,-0.885,3.1));
#1120=CARTESIAN_POINT('Origin',(-0.4425,-0.785,3.1));
#1121=CARTESIAN_POINT('',(-0.4425,-0.785,3.3));
#1122=CARTESIAN_POINT('',(-0.4425,-0.585,3.1));
#1123=CARTESIAN_POINT('Origin',(-0.2925,2.25,3.1));
#1124=CARTESIAN_POINT('',(-0.585,2.05,3.1));
#1125=CARTESIAN_POINT('',(-0.2925,2.05,3.1));
#1126=CARTESIAN_POINT('',(-0.785,2.25,3.3));
#1127=CARTESIAN_POINT('',(-0.2925,2.25,3.3));
#1128=CARTESIAN_POINT('Origin',(-0.785,2.25,3.1));
#1129=CARTESIAN_POINT('Ctrl Pts',(-0.885,0.585,3.1));
#1130=CARTESIAN_POINT('Ctrl Pts',(-0.585,0.585,3.1));
#1131=CARTESIAN_POINT('Ctrl Pts',(-0.585,0.885,3.1));
#1132=CARTESIAN_POINT('Ctrl Pts',(-0.885,0.585,3.3));
#1133=CARTESIAN_POINT('Ctrl Pts',(-0.585,0.585,3.3));
#1134=CARTESIAN_POINT('Ctrl Pts',(-0.585,0.885,3.3));
#1135=CARTESIAN_POINT('Ctrl Pts',(-0.885,0.785,3.3));
#1136=CARTESIAN_POINT('Ctrl Pts',(-0.785,0.785,3.3));
#1137=CARTESIAN_POINT('Ctrl Pts',(-0.785,0.885,3.3));
#1138=CARTESIAN_POINT('',(-0.585,0.885,3.1));
#1139=CARTESIAN_POINT('',(-0.785,0.885,3.3));
#1140=CARTESIAN_POINT('Origin',(-0.785,0.885,3.1));
#1141=CARTESIAN_POINT('Origin',(-0.885,0.885,3.3));
#1142=CARTESIAN_POINT('Origin',(-0.885,0.885,3.1));
#1143=CARTESIAN_POINT('Origin',(-0.785,0.4425,3.1));
#1144=CARTESIAN_POINT('',(-0.785,0.4425,3.3));
#1145=CARTESIAN_POINT('',(-0.585,0.4425,3.1));
#1146=CARTESIAN_POINT('Origin',(0.585,-2.05,0.));
#1147=CARTESIAN_POINT('',(0.585,-2.05,0.));
#1148=CARTESIAN_POINT('',(0.585,-2.05,0.));
#1149=CARTESIAN_POINT('',(-0.585,-2.05,0.));
#1150=CARTESIAN_POINT('',(0.585,-2.05,0.));
#1151=CARTESIAN_POINT('',(-0.585,-2.05,0.));
#1152=CARTESIAN_POINT('Origin',(0.585,-0.885,0.));
#1153=CARTESIAN_POINT('',(0.585,-0.885,0.));
#1154=CARTESIAN_POINT('',(0.585,-0.885,0.));
#1155=CARTESIAN_POINT('',(0.585,-0.885,0.));
#1156=CARTESIAN_POINT('Origin',(0.885,-0.885,0.));
#1157=CARTESIAN_POINT('',(0.885,-0.585,0.));
#1158=CARTESIAN_POINT('',(0.885,-0.585,0.));
#1159=CARTESIAN_POINT('Origin',(0.885,-0.885,0.));
#1160=CARTESIAN_POINT('Origin',(2.05,-0.585,0.));
#1161=CARTESIAN_POINT('',(2.05,-0.585,0.));
#1162=CARTESIAN_POINT('',(2.05,-0.585,0.));
#1163=CARTESIAN_POINT('',(2.05,-0.585,0.));
#1164=CARTESIAN_POINT('Origin',(2.05,0.585,0.));
#1165=CARTESIAN_POINT('',(2.05,0.585,0.));
#1166=CARTESIAN_POINT('',(2.05,0.585,0.));
#1167=CARTESIAN_POINT('',(2.05,0.585,0.));
#1168=CARTESIAN_POINT('Origin',(0.885,0.585,0.));
#1169=CARTESIAN_POINT('',(0.885,0.585,0.));
#1170=CARTESIAN_POINT('',(0.885,0.585,0.));
#1171=CARTESIAN_POINT('',(0.885,0.585,0.));
#1172=CARTESIAN_POINT('Origin',(0.885,0.885,0.));
#1173=CARTESIAN_POINT('',(0.585,0.885,0.));
#1174=CARTESIAN_POINT('',(0.585,0.885,0.));
#1175=CARTESIAN_POINT('Origin',(0.885,0.885,0.));
#1176=CARTESIAN_POINT('Origin',(0.585,2.05,0.));
#1177=CARTESIAN_POINT('',(0.585,2.05,0.));
#1178=CARTESIAN_POINT('',(0.585,2.05,0.));
#1179=CARTESIAN_POINT('',(0.585,2.05,0.));
#1180=CARTESIAN_POINT('Origin',(0.,0.,3.3));
#1181=CARTESIAN_POINT('',(-2.55,3.12284933782575E-16,3.3));
#1182=CARTESIAN_POINT('Origin',(0.,0.,3.3));
#1183=CARTESIAN_POINT('Origin',(0.,0.,3.1));
#1184=CARTESIAN_POINT('',(-2.75,-3.36777869765522E-16,3.1));
#1185=CARTESIAN_POINT('Origin',(-2.55,-3.12284933782575E-16,3.1));
#1186=CARTESIAN_POINT('Origin',(0.,0.,3.1));
#1187=CARTESIAN_POINT('Origin',(0.,0.,0.));
#1188=CARTESIAN_POINT('',(-2.75,3.36777869765522E-16,0.25));
#1189=CARTESIAN_POINT('',(-2.75,-3.36777869765522E-16,0.));
#1190=CARTESIAN_POINT('Origin',(0.,0.,0.25));
#1191=CARTESIAN_POINT('Origin',(0.,0.,0.25));
#1192=CARTESIAN_POINT('',(-3.,-3.67394039744206E-16,0.));
#1193=CARTESIAN_POINT('Origin',(0.,0.,0.));
#1194=CARTESIAN_POINT('Origin',(-3.,-3.67394039744206E-16,0.25));
#1195=CARTESIAN_POINT('Origin',(0.,0.,0.));
#1196=CARTESIAN_POINT('Origin',(0.,0.,0.));
#1197=CARTESIAN_POINT('',(-0.585,-0.885,0.));
#1198=CARTESIAN_POINT('',(-0.885,-0.585,0.));
#1199=CARTESIAN_POINT('Origin',(-0.885,-0.885,0.));
#1200=CARTESIAN_POINT('',(-0.585,-0.885,0.));
#1201=CARTESIAN_POINT('',(-0.585,2.05,0.));
#1202=CARTESIAN_POINT('',(-0.585,2.05,0.));
#1203=CARTESIAN_POINT('',(-0.585,0.885,0.));
#1204=CARTESIAN_POINT('',(-0.585,0.885,0.));
#1205=CARTESIAN_POINT('',(-0.885,0.585,0.));
#1206=CARTESIAN_POINT('Origin',(-0.885,0.885,0.));
#1207=CARTESIAN_POINT('',(-2.05,0.585,0.));
#1208=CARTESIAN_POINT('',(-2.05,0.585,0.));
#1209=CARTESIAN_POINT('',(-2.05,-0.585,0.));
#1210=CARTESIAN_POINT('',(-2.05,-0.585,0.));
#1211=CARTESIAN_POINT('',(-2.05,-0.585,0.));
#1212=CARTESIAN_POINT('Origin',(-0.885,-0.885,0.));
#1213=CARTESIAN_POINT('',(-0.585,-0.885,0.));
#1214=CARTESIAN_POINT('',(-0.885,-0.585,0.));
#1215=CARTESIAN_POINT('Origin',(-0.585,-2.05,0.));
#1216=CARTESIAN_POINT('Origin',(-0.585,2.05,0.));
#1217=CARTESIAN_POINT('',(-0.585,2.05,0.));
#1218=CARTESIAN_POINT('Origin',(-0.585,0.885,0.));
#1219=CARTESIAN_POINT('',(-0.585,0.885,0.));
#1220=CARTESIAN_POINT('Origin',(-0.885,0.885,0.));
#1221=CARTESIAN_POINT('',(-0.885,0.585,0.));
#1222=CARTESIAN_POINT('Origin',(-2.05,0.585,0.));
#1223=CARTESIAN_POINT('',(-2.05,0.585,0.));
#1224=CARTESIAN_POINT('Origin',(-2.05,-0.585,0.));
#1225=CARTESIAN_POINT('',(-2.05,-0.585,0.));
#1226=CARTESIAN_POINT('Origin',(-0.885,-0.585,0.));
#1227=UNCERTAINTY_MEASURE_WITH_UNIT(LENGTH_MEASURE(0.01),#1231,
'DISTANCE_ACCURACY_VALUE',
'Maximum model space distance between geometric entities at asserted c
onnectivities');
#1228=UNCERTAINTY_MEASURE_WITH_UNIT(LENGTH_MEASURE(0.01),#1231,
'DISTANCE_ACCURACY_VALUE',
'Maximum model space distance between geometric entities at asserted c
onnectivities');
#1229=(
GEOMETRIC_REPRESENTATION_CONTEXT(3)
GLOBAL_UNCERTAINTY_ASSIGNED_CONTEXT((#1227))
GLOBAL_UNIT_ASSIGNED_CONTEXT((#1231,#1233,#1234))
REPRESENTATION_CONTEXT('','3D')
);
#1230=(
GEOMETRIC_REPRESENTATION_CONTEXT(3)
GLOBAL_UNCERTAINTY_ASSIGNED_CONTEXT((#1228))
GLOBAL_UNIT_ASSIGNED_CONTEXT((#1231,#1233,#1234))
REPRESENTATION_CONTEXT('','3D')
);
#1231=(
LENGTH_UNIT()
NAMED_UNIT(*)
SI_UNIT(.MILLI.,.METRE.)
);
#1232=(
LENGTH_UNIT()
NAMED_UNIT(*)
SI_UNIT($,.METRE.)
);
#1233=(
NAMED_UNIT(*)
PLANE_ANGLE_UNIT()
SI_UNIT($,.RADIAN.)
);
#1234=(
NAMED_UNIT(*)
SI_UNIT($,.STERADIAN.)
SOLID_ANGLE_UNIT()
);
#1235=SHAPE_DEFINITION_REPRESENTATION(#1236,#1237);
#1236=PRODUCT_DEFINITION_SHAPE('',$,#1239);
#1237=SHAPE_REPRESENTATION('',(#651),#1229);
#1238=PRODUCT_DEFINITION_CONTEXT('part definition',#1243,'design');
#1239=PRODUCT_DEFINITION('2026-09-19-15-37-47-268',
'MX Plug Mushroom v4',#1240,#1238);
#1240=PRODUCT_DEFINITION_FORMATION('',$,#1245);
#1241=PRODUCT_RELATED_PRODUCT_CATEGORY('MX Plug Mushroom v4',
'MX Plug Mushroom v4',(#1245));
#1242=APPLICATION_PROTOCOL_DEFINITION('international standard',
'automotive_design',2009,#1243);
#1243=APPLICATION_CONTEXT(
'Core Data for Automotive Mechanical Design Process');
#1244=PRODUCT_CONTEXT('part definition',#1243,'mechanical');
#1245=PRODUCT('2026-09-19-15-37-47-268','MX Plug Mushroom v4',$,(#1244));
#1246=PRESENTATION_STYLE_ASSIGNMENT((#1247));
#1247=SURFACE_STYLE_USAGE(.BOTH.,#1248);
#1248=SURFACE_SIDE_STYLE('',(#1249));
#1249=SURFACE_STYLE_FILL_AREA(#1250);
#1250=FILL_AREA_STYLE('Steel - Satin',(#1251));
#1251=FILL_AREA_STYLE_COLOUR('Steel - Satin',#1252);
#1252=COLOUR_RGB('Steel - Satin',0.627450980392157,0.627450980392157,0.627450980392157);
ENDSEC;
END-ISO-10303-21;
